<svg width="241" height="92" viewBox="0 0 241 92" fill="none" xmlns="http://www.w3.org/2000/svg">
<g filter="url(#filter0_d_502_10)">
<path d="M72.92 40V4.72L78.104 4.72C80.072 4.72 81.712 5.152 83.024 6.016C84.352 6.88 85.344 8.104 86 9.688C86.656 11.272 86.984 13.136 86.984 15.28C86.984 17.424 86.64 19.272 85.952 20.824C85.264 22.376 84.256 23.592 82.928 24.472C81.616 25.336 80.008 25.808 78.104 25.888V40H72.92ZM78.104 20.608C79.016 20.608 79.736 20.432 80.264 20.08C80.792 19.712 81.168 19.136 81.392 18.352C81.632 17.568 81.752 16.56 81.752 15.328C81.752 14.08 81.632 13.064 81.392 12.28C81.168 11.496 80.784 10.92 80.24 10.552C79.712 10.184 79 10 78.104 10V20.608ZM91.235 40V4.72H96.419C99.523 4.72 101.811 5.584 103.283 7.312C104.755 9.024 105.491 11.552 105.491 14.896C105.491 16.88 105.139 18.6 104.435 20.056C103.747 21.496 102.907 22.552 101.915 23.224L105.443 40H100.259L97.331 25.12H96.419V40L91.235 40ZM96.419 20.32C97.379 20.32 98.139 20.112 98.699 19.696C99.259 19.264 99.659 18.656 99.899 17.872C100.139 17.088 100.259 16.16 100.259 15.088C100.259 13.408 99.979 12.12 99.419 11.224C98.875 10.312 97.875 9.856 96.419 9.856V20.32ZM116.503 40.384C115.063 40.384 113.823 40.048 112.783 39.376C111.759 38.704 110.967 37.792 110.407 36.64C109.863 35.488 109.591 34.192 109.591 32.752V11.968C109.591 10.512 109.863 9.216 110.407 8.08C110.967 6.928 111.759 6.016 112.783 5.344C113.823 4.672 115.063 4.336 116.503 4.336C117.943 4.336 119.175 4.672 120.199 5.344C121.239 6.016 122.031 6.928 122.575 8.08C123.135 9.232 123.415 10.528 123.415 11.968V32.752C123.415 34.192 123.135 35.488 122.575 36.64C122.031 37.792 121.239 38.704 120.199 39.376C119.175 40.048 117.943 40.384 116.503 40.384ZM116.503 35.344C117.143 35.344 117.591 35.08 117.847 34.552C118.103 34.008 118.231 33.408 118.231 32.752V11.968C118.231 11.312 118.095 10.72 117.823 10.192C117.551 9.648 117.111 9.376 116.503 9.376C115.911 9.376 115.471 9.648 115.183 10.192C114.911 10.72 114.775 11.312 114.775 11.968V32.752C114.775 33.408 114.911 34.008 115.183 34.552C115.455 35.08 115.895 35.344 116.503 35.344ZM128.474 40V4.72L133.754 4.72C135.418 4.72 136.826 4.992 137.978 5.536C139.13 6.08 140.058 7.008 140.762 8.32C141.466 9.632 141.97 11.432 142.274 13.72C142.594 16.008 142.754 18.896 142.754 22.384C142.754 25.888 142.594 28.784 142.274 31.072C141.97 33.344 141.466 35.136 140.762 36.448C140.058 37.744 139.13 38.664 137.978 39.208C136.826 39.736 135.418 40 133.754 40H128.474ZM133.658 34.816C134.938 34.816 135.842 34.312 136.37 33.304C136.898 32.296 137.218 30.856 137.33 28.984C137.442 27.112 137.498 24.888 137.498 22.312C137.498 19.704 137.442 17.48 137.33 15.64C137.218 13.784 136.89 12.368 136.346 11.392C135.818 10.4 134.922 9.904 133.658 9.904V34.816ZM154.686 40.384C153.23 40.384 151.982 40.048 150.942 39.376C149.918 38.704 149.134 37.792 148.59 36.64C148.046 35.488 147.774 34.192 147.774 32.752V4.72L152.958 4.72V32.752C152.958 33.44 153.094 34.048 153.366 34.576C153.638 35.088 154.078 35.344 154.686 35.344C155.326 35.344 155.774 35.088 156.03 34.576C156.286 34.048 156.414 33.44 156.414 32.752V4.72H161.598V32.752C161.598 34.192 161.318 35.488 160.758 36.64C160.214 37.792 159.422 38.704 158.382 39.376C157.358 40.048 156.126 40.384 154.686 40.384ZM173.558 40.384C172.086 40.384 170.83 40.056 169.79 39.4C168.766 38.728 167.982 37.816 167.438 36.664C166.91 35.512 166.646 34.208 166.646 32.752V11.968C166.646 10.528 166.918 9.232 167.462 8.08C168.022 6.928 168.822 6.016 169.862 5.344C170.902 4.672 172.134 4.336 173.558 4.336C174.63 4.336 175.59 4.536 176.438 4.936C177.286 5.336 178.006 5.888 178.598 6.592C179.206 7.28 179.67 8.088 179.99 9.016C180.31 9.928 180.47 10.912 180.47 11.968V16.816L175.622 16.816V11.968C175.622 11.232 175.47 10.616 175.166 10.12C174.862 9.624 174.358 9.376 173.654 9.376C173.014 9.376 172.55 9.632 172.262 10.144C171.974 10.656 171.83 11.264 171.83 11.968V32.752C171.83 33.456 171.982 34.064 172.286 34.576C172.606 35.088 173.062 35.344 173.654 35.344C174.374 35.344 174.878 35.096 175.166 34.6C175.47 34.104 175.622 33.488 175.622 32.752V27.904H180.47V32.752C180.47 34.192 180.19 35.488 179.63 36.64C179.07 37.792 178.27 38.704 177.23 39.376C176.206 40.048 174.982 40.384 173.558 40.384ZM185.529 40V4.72L197.385 4.72V10.048H190.713V19.552L195.513 19.552V24.736L190.713 24.736V34.672H197.385V40H185.529ZM202.672 40V4.72L207.856 4.72C210.96 4.72 213.248 5.584 214.72 7.312C216.192 9.024 216.928 11.552 216.928 14.896C216.928 16.88 216.576 18.6 215.872 20.056C215.184 21.496 214.344 22.552 213.352 23.224L216.88 40H211.696L208.768 25.12H207.856V40H202.672ZM207.856 20.32C208.816 20.32 209.576 20.112 210.136 19.696C210.696 19.264 211.096 18.656 211.336 17.872C211.576 17.088 211.696 16.16 211.696 15.088C211.696 13.408 211.416 12.12 210.856 11.224C210.312 10.312 209.312 9.856 207.856 9.856V20.32ZM227.508 40.384C226.084 40.384 224.9 40.152 223.956 39.688C223.012 39.208 222.268 38.52 221.724 37.624C221.18 36.728 220.788 35.648 220.548 34.384C220.324 33.12 220.212 31.696 220.212 30.112L225.3 29.632C225.3 30.4 225.324 31.144 225.372 31.864C225.436 32.568 225.54 33.208 225.684 33.784C225.844 34.344 226.068 34.792 226.356 35.128C226.66 35.464 227.044 35.632 227.508 35.632C228.276 35.632 228.82 35.28 229.14 34.576C229.46 33.856 229.62 32.992 229.62 31.984C229.62 30.976 229.356 29.928 228.828 28.84C228.3 27.752 227.668 26.72 226.932 25.744C225.684 24.08 224.588 22.536 223.644 21.112C222.716 19.688 221.988 18.288 221.46 16.912C220.948 15.536 220.692 14.096 220.692 12.592C220.692 11.408 220.844 10.32 221.148 9.328C221.452 8.32 221.892 7.448 222.468 6.712C223.06 5.96 223.772 5.376 224.604 4.96C225.436 4.544 226.388 4.336 227.46 4.336C228.788 4.336 229.908 4.56 230.82 5.008C231.748 5.456 232.492 6.096 233.052 6.928C233.628 7.76 234.044 8.752 234.3 9.904C234.572 11.04 234.708 12.304 234.708 13.696L229.62 14.176C229.62 13.584 229.588 12.992 229.524 12.4C229.476 11.792 229.38 11.24 229.236 10.744C229.092 10.248 228.884 9.848 228.612 9.544C228.34 9.24 227.988 9.088 227.556 9.088C226.884 9.088 226.42 9.376 226.164 9.952C225.908 10.512 225.78 11.312 225.78 12.352C225.78 13.696 226.14 14.992 226.86 16.24C227.58 17.488 228.548 18.944 229.764 20.608C231.22 22.576 232.404 24.384 233.316 26.032C234.244 27.68 234.708 29.504 234.708 31.504C234.708 32.768 234.572 33.944 234.3 35.032C234.028 36.104 233.596 37.04 233.004 37.84C232.428 38.64 231.684 39.264 230.772 39.712C229.876 40.16 228.788 40.384 227.508 40.384Z" fill="#F5F5F5"/>
</g>
<path fill-rule="evenodd" clip-rule="evenodd" d="M42.8696 7.00157C42.7465 7.00053 42.6233 7 42.5 7C19.0279 7 0 26.0279 0 49.5C0 72.9721 19.0279 92 42.5 92C65.9721 92 85 72.9721 85 49.5C85 49.3767 84.9995 49.2535 84.9984 49.1304L42.8696 49.1304L42.8696 7.00157Z" fill="#F5F5F5" fill-opacity="0.3"/>
<circle cx="42.5" cy="49.5" r="25.5" fill="#EAE823"/>
<path d="M56.0607 50.0607C56.6464 49.4749 56.6464 48.5251 56.0607 47.9393L46.5147 38.3934C45.9289 37.8076 44.9792 37.8076 44.3934 38.3934C43.8076 38.9792 43.8076 39.9289 44.3934 40.5147L52.8787 49L44.3934 57.4853C43.8076 58.0711 43.8076 59.0208 44.3934 59.6066C44.9792 60.1924 45.9289 60.1924 46.5147 59.6066L56.0607 50.0607ZM29 50.5L55 50.5V47.5L29 47.5V50.5Z" fill="black"/>
<defs>
<filter id="filter0_d_502_10" x="70.92" y="0.335938" width="169.788" height="44.0481" filterUnits="userSpaceOnUse" color-interpolation-filters="sRGB">
<feFlood flood-opacity="0" result="BackgroundImageFix"/>
<feColorMatrix in="SourceAlpha" type="matrix" values="0 0 0 0 0 0 0 0 0 0 0 0 0 0 0 0 0 0 127 0" result="hardAlpha"/>
<feOffset dx="2"/>
<feGaussianBlur stdDeviation="2"/>
<feComposite in2="hardAlpha" operator="out"/>
<feColorMatrix type="matrix" values="0 0 0 0 0 0 0 0 0 0 0 0 0 0 0 0 0 0 0.25 0"/>
<feBlend mode="normal" in2="BackgroundImageFix" result="effect1_dropShadow_502_10"/>
<feBlend mode="normal" in="SourceGraphic" in2="effect1_dropShadow_502_10" result="shape"/>
</filter>
</defs>
</svg>
