<svg width="275" height="90" viewBox="0 0 275 90" fill="none" xmlns="http://www.w3.org/2000/svg">
<path fill-rule="evenodd" clip-rule="evenodd" d="M190.002 47.1304C190.001 47.2535 190 47.3767 190 47.5C190 70.9721 209.028 90 232.5 90C255.972 90 275 70.9721 275 47.5C275 24.0279 255.972 5 232.5 5C232.377 5 232.253 5.00052 232.13 5.00157L232.13 47.1304L190.002 47.1304Z" fill="#F5F5F5" fill-opacity="0.3"/>
<circle cx="232.5" cy="47.5" r="25.5" transform="rotate(-90 232.5 47.5)" fill="#EAE823"/>
<g filter="url(#filter0_d_502_25)">
<path d="M10.16 40.384C8.736 40.384 7.552 40.152 6.608 39.688C5.664 39.208 4.92 38.52 4.376 37.624C3.832 36.728 3.44 35.648 3.2 34.384C2.976 33.12 2.864 31.696 2.864 30.112L7.952 29.632C7.952 30.4 7.976 31.144 8.024 31.864C8.088 32.568 8.192 33.208 8.336 33.784C8.496 34.344 8.72 34.792 9.008 35.128C9.312 35.464 9.696 35.632 10.16 35.632C10.928 35.632 11.472 35.28 11.792 34.576C12.112 33.856 12.272 32.992 12.272 31.984C12.272 30.976 12.008 29.928 11.48 28.84C10.952 27.752 10.32 26.72 9.584 25.744C8.336 24.08 7.24 22.536 6.296 21.112C5.368 19.688 4.64 18.288 4.112 16.912C3.6 15.536 3.344 14.096 3.344 12.592C3.344 11.408 3.496 10.32 3.8 9.328C4.104 8.32 4.544 7.448 5.12 6.712C5.712 5.96 6.424 5.376 7.256 4.96C8.088 4.544 9.04 4.336 10.112 4.336C11.44 4.336 12.56 4.56 13.472 5.008C14.4 5.456 15.144 6.096 15.704 6.928C16.28 7.76 16.696 8.752 16.952 9.904C17.224 11.04 17.36 12.304 17.36 13.696L12.272 14.176C12.272 13.584 12.24 12.992 12.176 12.4C12.128 11.792 12.032 11.24 11.888 10.744C11.744 10.248 11.536 9.848 11.264 9.544C10.992 9.24 10.64 9.088 10.208 9.088C9.536 9.088 9.072 9.376 8.816 9.952C8.56 10.512 8.432 11.312 8.432 12.352C8.432 13.696 8.792 14.992 9.512 16.24C10.232 17.488 11.2 18.944 12.416 20.608C13.872 22.576 15.056 24.384 15.968 26.032C16.896 27.68 17.36 29.504 17.36 31.504C17.36 32.768 17.224 33.944 16.952 35.032C16.68 36.104 16.248 37.04 15.656 37.84C15.08 38.64 14.336 39.264 13.424 39.712C12.528 40.16 11.44 40.384 10.16 40.384ZM28.2508 40.384C26.8108 40.384 25.5708 40.048 24.5308 39.376C23.5068 38.704 22.7148 37.792 22.1548 36.64C21.6108 35.488 21.3388 34.192 21.3388 32.752L21.3388 11.968C21.3388 10.512 21.6108 9.216 22.1548 8.08C22.7148 6.928 23.5068 6.016 24.5308 5.344C25.5708 4.672 26.8108 4.336 28.2508 4.336C29.6908 4.336 30.9228 4.672 31.9468 5.344C32.9868 6.016 33.7788 6.928 34.3228 8.08C34.8828 9.232 35.1628 10.528 35.1628 11.968L35.1628 32.752C35.1628 34.192 34.8828 35.488 34.3228 36.64C33.7788 37.792 32.9868 38.704 31.9468 39.376C30.9228 40.048 29.6908 40.384 28.2508 40.384ZM28.2508 35.344C28.8908 35.344 29.3388 35.08 29.5948 34.552C29.8508 34.008 29.9788 33.408 29.9788 32.752L29.9788 11.968C29.9788 11.312 29.8428 10.72 29.5708 10.192C29.2988 9.648 28.8588 9.376 28.2508 9.376C27.6588 9.376 27.2188 9.648 26.9308 10.192C26.6588 10.72 26.5228 11.312 26.5228 11.968L26.5228 32.752C26.5228 33.408 26.6588 34.008 26.9308 34.552C27.2028 35.08 27.6428 35.344 28.2508 35.344ZM40.2219 40L40.2219 4.72L45.0699 4.72L49.8699 23.104L50.3019 24.736H50.5899L50.5899 4.72L55.3419 4.72L55.3419 40H50.9739L45.6939 21.616L45.2619 19.984H44.9739L44.9739 40H40.2219ZM66.4554 40.384C65.0314 40.384 63.8714 40.048 62.9754 39.376C62.0794 38.704 61.4154 37.792 60.9834 36.64C60.5674 35.488 60.3594 34.192 60.3594 32.752L60.3594 11.968C60.3594 10.544 60.6394 9.256 61.1994 8.104C61.7594 6.952 62.5594 6.04 63.5994 5.368C64.6394 4.68 65.8634 4.336 67.2714 4.336C68.3434 4.336 69.3034 4.536 70.1514 4.936C71.0154 5.32 71.7434 5.864 72.3354 6.568C72.9434 7.272 73.3994 8.088 73.7034 9.016C74.0234 9.928 74.1834 10.912 74.1834 11.968V17.392H68.9994V11.968C68.9994 11.264 68.8714 10.656 68.6154 10.144C68.3594 9.632 67.9114 9.376 67.2714 9.376C66.6474 9.376 66.1994 9.648 65.9274 10.192C65.6714 10.72 65.5434 11.312 65.5434 11.968V33.184C65.5434 33.872 65.6794 34.48 65.9514 35.008C66.2234 35.52 66.6634 35.776 67.2714 35.776C67.9114 35.776 68.3594 35.52 68.6154 35.008C68.8714 34.48 68.9994 33.872 68.9994 33.184V27.28H66.9354V22.432H74.1834V40H71.1114L70.4874 38.08C70.0394 38.8 69.4634 39.368 68.7594 39.784C68.0714 40.184 67.3034 40.384 66.4554 40.384ZM83.0289 40L78.2769 4.72H83.0769L85.1409 23.056L85.2369 24.208H85.6209L85.7649 23.056L87.9729 4.72H91.7169L93.9249 23.056L94.0689 24.208H94.4529L94.5489 23.056L96.6129 4.72L101.413 4.72L96.6609 40H92.6289L90.2289 23.296L89.9409 21.232H89.7489L89.4609 23.296L87.0609 40H83.0289ZM105.479 40V4.72L110.663 4.72C113.767 4.72 116.055 5.584 117.527 7.312C118.999 9.024 119.735 11.552 119.735 14.896C119.735 16.88 119.383 18.6 118.679 20.056C117.991 21.496 117.151 22.552 116.159 23.224L119.687 40H114.503L111.575 25.12H110.663V40H105.479ZM110.663 20.32C111.623 20.32 112.383 20.112 112.943 19.696C113.503 19.264 113.903 18.656 114.143 17.872C114.383 17.088 114.503 16.16 114.503 15.088C114.503 13.408 114.223 12.12 113.663 11.224C113.119 10.312 112.119 9.856 110.663 9.856V20.32ZM124.076 40V4.72L129.26 4.72V40H124.076ZM138.019 40V10.048H133.123V4.72L148.099 4.72V10.048H143.203V40H138.019ZM151.94 40V4.72L163.796 4.72V10.048L157.124 10.048V19.552H161.924V24.736H157.124V34.672H163.796V40L151.94 40ZM169.083 40V4.72L174.267 4.72C177.371 4.72 179.659 5.584 181.131 7.312C182.603 9.024 183.339 11.552 183.339 14.896C183.339 16.88 182.987 18.6 182.283 20.056C181.595 21.496 180.755 22.552 179.763 23.224L183.291 40H178.107L175.179 25.12H174.267V40H169.083ZM174.267 20.32C175.227 20.32 175.987 20.112 176.547 19.696C177.107 19.264 177.507 18.656 177.747 17.872C177.987 17.088 178.107 16.16 178.107 15.088C178.107 13.408 177.827 12.12 177.267 11.224C176.723 10.312 175.723 9.856 174.267 9.856V20.32ZM193.919 40.384C192.495 40.384 191.311 40.152 190.367 39.688C189.423 39.208 188.679 38.52 188.135 37.624C187.591 36.728 187.199 35.648 186.959 34.384C186.735 33.12 186.623 31.696 186.623 30.112L191.711 29.632C191.711 30.4 191.735 31.144 191.783 31.864C191.847 32.568 191.951 33.208 192.095 33.784C192.255 34.344 192.479 34.792 192.767 35.128C193.071 35.464 193.455 35.632 193.919 35.632C194.687 35.632 195.231 35.28 195.551 34.576C195.871 33.856 196.031 32.992 196.031 31.984C196.031 30.976 195.767 29.928 195.239 28.84C194.711 27.752 194.079 26.72 193.343 25.744C192.095 24.08 190.999 22.536 190.055 21.112C189.127 19.688 188.399 18.288 187.871 16.912C187.359 15.536 187.103 14.096 187.103 12.592C187.103 11.408 187.255 10.32 187.559 9.328C187.863 8.32 188.303 7.448 188.879 6.712C189.471 5.96 190.183 5.376 191.015 4.96C191.847 4.544 192.799 4.336 193.871 4.336C195.199 4.336 196.319 4.56 197.231 5.008C198.159 5.456 198.903 6.096 199.463 6.928C200.039 7.76 200.455 8.752 200.711 9.904C200.983 11.04 201.119 12.304 201.119 13.696L196.031 14.176C196.031 13.584 195.999 12.992 195.935 12.4C195.887 11.792 195.791 11.24 195.647 10.744C195.503 10.248 195.295 9.848 195.023 9.544C194.751 9.24 194.399 9.088 193.967 9.088C193.295 9.088 192.831 9.376 192.575 9.952C192.319 10.512 192.191 11.312 192.191 12.352C192.191 13.696 192.551 14.992 193.271 16.24C193.991 17.488 194.959 18.944 196.175 20.608C197.631 22.576 198.815 24.384 199.727 26.032C200.655 27.68 201.119 29.504 201.119 31.504C201.119 32.768 200.983 33.944 200.711 35.032C200.439 36.104 200.007 37.04 199.415 37.84C198.839 38.64 198.095 39.264 197.183 39.712C196.287 40.16 195.199 40.384 193.919 40.384Z" fill="#F5F5F5"/>
</g>
<path d="M246.061 47.0607C246.646 46.4749 246.646 45.5251 246.061 44.9393L236.515 35.3934C235.929 34.8076 234.979 34.8076 234.393 35.3934C233.808 35.9792 233.808 36.9289 234.393 37.5147L242.879 46L234.393 54.4853C233.808 55.0711 233.808 56.0208 234.393 56.6066C234.979 57.1924 235.929 57.1924 236.515 56.6066L246.061 47.0607ZM219 47.5L245 47.5V44.5L219 44.5V47.5Z" fill="black"/>
<defs>
<filter id="filter0_d_502_25" x="0.864014" y="0.335938" width="206.255" height="44.0481" filterUnits="userSpaceOnUse" color-interpolation-filters="sRGB">
<feFlood flood-opacity="0" result="BackgroundImageFix"/>
<feColorMatrix in="SourceAlpha" type="matrix" values="0 0 0 0 0 0 0 0 0 0 0 0 0 0 0 0 0 0 127 0" result="hardAlpha"/>
<feOffset dx="2"/>
<feGaussianBlur stdDeviation="2"/>
<feComposite in2="hardAlpha" operator="out"/>
<feColorMatrix type="matrix" values="0 0 0 0 0 0 0 0 0 0 0 0 0 0 0 0 0 0 0.25 0"/>
<feBlend mode="normal" in2="BackgroundImageFix" result="effect1_dropShadow_502_25"/>
<feBlend mode="normal" in="SourceGraphic" in2="effect1_dropShadow_502_25" result="shape"/>
</filter>
</defs>
</svg>
