<svg width="69" height="69" viewBox="0 0 69 69" fill="none" xmlns="http://www.w3.org/2000/svg">
<mask id="path-1-inside-1_70_1733" fill="white">
<path fill-rule="evenodd" clip-rule="evenodd" d="M34.5342 0.00127055C34.4349 0.000424085 34.3356 0 34.2361 0C15.328 0 0 15.328 0 34.2361C0 53.1442 15.328 68.4722 34.2361 68.4722C53.1442 68.4722 68.4722 53.1442 68.4722 34.2361C68.4722 34.1368 68.4718 34.0375 68.471 33.9384L34.5342 33.9384L34.5342 0.00127055Z"/>
</mask>
<path d="M34.5342 0.00127055L35.5342 0.00127055V-0.990238L34.5427 -0.998693L34.5342 0.00127055ZM68.471 33.9384L69.4709 33.9299L69.4624 32.9384H68.471V33.9384ZM34.5342 33.9384H33.5342V34.9384H34.5342V33.9384ZM34.2361 1C34.3327 1 34.4292 1.00041 34.5257 1.00123L34.5427 -0.998693C34.4406 -0.999564 34.3384 -1 34.2361 -1V1ZM1 34.2361C1 15.8803 15.8803 1 34.2361 1V-1C14.7757 -1 -1 14.7757 -1 34.2361H1ZM34.2361 67.4722C15.8803 67.4722 1 52.5919 1 34.2361H-1C-1 53.6965 14.7757 69.4722 34.2361 69.4722V67.4722ZM67.4722 34.2361C67.4722 52.5919 52.5919 67.4722 34.2361 67.4722V69.4722C53.6965 69.4722 69.4722 53.6965 69.4722 34.2361H67.4722ZM67.471 33.9469C67.4718 34.0432 67.4722 34.1396 67.4722 34.2361H69.4722C69.4722 34.134 69.4718 34.0319 69.4709 33.9299L67.471 33.9469ZM68.471 32.9384L34.5342 32.9384V34.9384L68.471 34.9384V32.9384ZM35.5342 33.9384L35.5342 0.00127055L33.5342 0.00127055L33.5342 33.9384H35.5342Z" fill="black" mask="url(#path-1-inside-1_70_1733)"/>
<circle cx="34.236" cy="34.2361" r="20.5417" fill="black"/>
<line x1="34.5" y1="26.5" x2="34.5" y2="41.5" stroke="#EAE823" stroke-width="3" stroke-linecap="round"/>
<line x1="42.5" y1="34.5" x2="27.5" y2="34.5" stroke="#EAE823" stroke-width="3" stroke-linecap="round"/>
</svg>
