<svg width="11" height="12" viewBox="0 0 11 12" fill="none" xmlns="http://www.w3.org/2000/svg">
<path d="M5.36713 1.73503L1.17751 10.9165L8.13294 10.9165C8.33438 10.9165 8.51657 11.0435 8.59563 11.2376L8.60319 11.2553C8.62905 11.3185 8.64057 11.387 8.63688 11.4555C8.63319 11.5239 8.61438 11.5907 8.58188 11.6506C8.52507 11.7559 8.44193 11.8439 8.34103 11.9053C8.24013 11.9667 8.12511 11.9994 8.00782 12L0.615825 12C0.50143 11.9998 0.389763 11.9641 0.29545 11.8976L0.25695 11.8708C0.140564 11.7874 0.0566939 11.6644 0.0202008 11.5236C-0.0162923 11.3827 -0.0030524 11.2332 0.0575749 11.1014L5.0007 0.40797C5.05226 0.29644 5.12582 0.197617 5.21588 0.118557C5.30087 0.0433048 5.40903 0.00132243 5.52125 3.07187e-05C5.63347 -0.00126099 5.74252 0.0382209 5.82913 0.111498C5.86846 0.144393 5.90017 0.185868 5.92195 0.23291L10.9359 10.9991C11.0046 11.1452 11.0184 11.3125 10.9758 11.4692C10.9536 11.5545 10.9047 11.63 10.8366 11.6839C10.7685 11.7379 10.685 11.7673 10.599 11.7678H10.5413C10.4259 11.7671 10.3131 11.7324 10.2163 11.6678C10.1196 11.6032 10.0429 11.5115 9.99538 11.4035L5.67101 1.73644C5.65798 1.70631 5.63681 1.68065 5.61 1.6625C5.58319 1.64436 5.55187 1.6345 5.51976 1.63409C5.48757 1.63411 5.45606 1.64363 5.429 1.66153C5.40193 1.67943 5.38046 1.70494 5.36713 1.73503Z" fill="black"/>
</svg>
