<svg width="100" height="53" viewBox="0 0 100 53" fill="none" xmlns="http://www.w3.org/2000/svg">
<path fill-rule="evenodd" clip-rule="evenodd" d="M26.7304 0.000980672C26.6537 0.00032733 26.5769 0 26.5 0C11.8645 0 0 11.8645 0 26.5C0 41.1356 11.8645 53 26.5 53C41.1356 53 53 41.1356 53 26.5C53 26.4231 52.9997 26.3463 52.999 26.2696H26.7304V0.000980672Z" fill="#F5F5F5" fill-opacity="0.3"/>
<circle cx="26.5" cy="26.5" r="15.9" fill="#EAE823"/>
<path d="M17.9986 26.1047C17.6081 26.4952 17.6081 27.1284 17.9986 27.5189L24.3626 33.8829C24.7531 34.2734 25.3863 34.2734 25.7768 33.8829C26.1673 33.4924 26.1673 32.8592 25.7768 32.4687L20.1199 26.8118L25.7768 21.155C26.1673 20.7644 26.1673 20.1313 25.7768 19.7407C25.3863 19.3502 24.7531 19.3502 24.3626 19.7407L17.9986 26.1047ZM34.9175 25.8118L18.7057 25.8118L18.7057 27.8118L34.9175 27.8118L34.9175 25.8118Z" fill="black"/>
<path d="M62.96 35V17.36H65.6C66.496 17.36 67.268 17.52 67.916 17.84C68.572 18.152 69.076 18.644 69.428 19.316C69.788 19.988 69.968 20.856 69.968 21.92C69.968 22.768 69.856 23.508 69.632 24.14C69.416 24.772 68.992 25.288 68.36 25.688C69 26.04 69.46 26.6 69.74 27.368C70.02 28.128 70.16 29.008 70.16 30.008C70.16 30.992 70 31.86 69.68 32.612C69.368 33.364 68.904 33.952 68.288 34.376C67.68 34.792 66.928 35 66.032 35H62.96ZM65.552 32.432C66.336 32.432 66.852 32.2 67.1 31.736C67.348 31.264 67.472 30.592 67.472 29.72C67.472 28.832 67.348 28.16 67.1 27.704C66.852 27.24 66.336 27.008 65.552 27.008V32.432ZM65.552 24.632C66.28 24.632 66.78 24.432 67.052 24.032C67.332 23.632 67.472 23.04 67.472 22.256C67.472 21.464 67.328 20.88 67.04 20.504C66.76 20.12 66.264 19.928 65.552 19.928V24.632ZM71.8822 35L74.5462 17.36H77.7142L80.3782 35H77.8582L77.3782 31.4H74.8822L74.4022 35H71.8822ZM75.2422 28.664H77.0182L76.2742 22.736L76.2022 21.8H76.0582L75.9862 22.736L75.2422 28.664ZM85.8063 35.192C85.0703 35.192 84.4423 35.028 83.9223 34.7C83.4103 34.364 83.0183 33.908 82.7463 33.332C82.4823 32.756 82.3503 32.104 82.3503 31.376V20.984C82.3503 20.264 82.4863 19.616 82.7583 19.04C83.0383 18.464 83.4383 18.008 83.9583 17.672C84.4783 17.336 85.0943 17.168 85.8063 17.168C86.3423 17.168 86.8223 17.268 87.2463 17.468C87.6703 17.668 88.0303 17.944 88.3263 18.296C88.6303 18.64 88.8623 19.044 89.0223 19.508C89.1823 19.964 89.2623 20.456 89.2623 20.984V23.408H86.8383V20.984C86.8383 20.616 86.7623 20.308 86.6103 20.06C86.4583 19.812 86.2063 19.688 85.8543 19.688C85.5343 19.688 85.3023 19.816 85.1583 20.072C85.0143 20.328 84.9423 20.632 84.9423 20.984V31.376C84.9423 31.728 85.0183 32.032 85.1703 32.288C85.3303 32.544 85.5583 32.672 85.8543 32.672C86.2143 32.672 86.4663 32.548 86.6103 32.3C86.7623 32.052 86.8383 31.744 86.8383 31.376V28.952H89.2623V31.376C89.2623 32.096 89.1223 32.744 88.8423 33.32C88.5623 33.896 88.1623 34.352 87.6423 34.688C87.1303 35.024 86.5183 35.192 85.8063 35.192ZM91.7919 35V17.36H94.3839V23.24V23.528H94.4799L94.5999 23.24L96.6159 17.36H99.2799L96.9039 23.168L99.5919 35H96.9279L95.1999 26.96H95.1279L94.3839 28.76V35H91.7919Z" fill="black"/>
</svg>
