<svg width="12" height="12" viewBox="0 0 12 12" fill="none" xmlns="http://www.w3.org/2000/svg">
<path fill-rule="evenodd" clip-rule="evenodd" d="M3.39834 4.9575H6.84949V6.672H3.39834L3.39834 10.2855L5.57511 10.2855C6.4367 10.2855 7.14148 10.1768 7.69028 9.95775C8.23907 9.7395 8.66946 9.43725 8.98225 9.05025C9.30218 8.6478 9.51996 8.18225 9.61904 7.689C9.73462 7.13261 9.7909 6.56683 9.78704 6C9.7909 5.43317 9.73462 4.86739 9.61904 4.311C9.52007 3.81772 9.30227 3.35214 8.98225 2.94975C8.66946 2.56275 8.23827 2.2605 7.69028 2.04225C7.14148 1.82325 6.4367 1.7145 5.57511 1.7145L3.39834 1.7145L3.39834 4.95825V4.9575ZM1.18558 6.672H0L0 4.95825H1.18558L1.18558 0L6.4247 0C7.39268 0 8.23027 0.1575 8.93825 0.47025C9.64624 0.7845 10.2238 1.21275 10.6726 1.7565C11.1206 2.2995 11.4542 2.9355 11.6726 3.66375C11.891 4.392 11.9998 5.17125 11.9998 6C12.0053 6.78917 11.8949 7.57529 11.6718 8.33625C11.4542 9.06375 11.1206 9.7005 10.6718 10.2435C10.2238 10.7873 9.64624 11.2155 8.93825 11.5297C8.23027 11.8432 7.39188 12 6.4247 12L1.18558 12L1.18558 6.672Z" fill="black"/>
</svg>
