<svg width="70" height="69" viewBox="0 0 70 69" fill="none" xmlns="http://www.w3.org/2000/svg">
<mask id="path-1-inside-1_9_187" fill="white">
<path fill-rule="evenodd" clip-rule="evenodd" d="M35.506 0.00126752C35.4069 0.000423075 35.3076 0 35.2083 0C16.3002 0 0.972168 15.328 0.972168 34.2361C0.972168 53.1442 16.3002 68.4722 35.2083 68.4722C54.1164 68.4722 69.4444 53.1442 69.4444 34.2361C69.4444 34.1368 69.444 34.0375 69.4431 33.9384L35.506 33.9384L35.506 0.00126752Z"/>
</mask>
<path d="M35.506 0.00126752L36.506 0.00126752V-0.990251L35.5145 -0.998696L35.506 0.00126752ZM69.4431 33.9384L70.4431 33.9299L70.4346 32.9384H69.4431V33.9384ZM35.506 33.9384H34.506V34.9384H35.506V33.9384ZM35.2083 1C35.3048 1 35.4012 1.00041 35.4975 1.00123L35.5145 -0.998696C35.4125 -0.999565 35.3105 -1 35.2083 -1V1ZM1.97217 34.2361C1.97217 15.8803 16.8525 1 35.2083 1V-1C15.7479 -1 -0.027832 14.7757 -0.027832 34.2361H1.97217ZM35.2083 67.4722C16.8525 67.4722 1.97217 52.5919 1.97217 34.2361H-0.027832C-0.027832 53.6965 15.7479 69.4722 35.2083 69.4722V67.4722ZM68.4444 34.2361C68.4444 52.5919 53.5641 67.4722 35.2083 67.4722V69.4722C54.6686 69.4722 70.4444 53.6965 70.4444 34.2361H68.4444ZM68.4432 33.9469C68.444 34.0432 68.4444 34.1396 68.4444 34.2361H70.4444C70.4444 34.134 70.444 34.0319 70.4431 33.9299L68.4432 33.9469ZM69.4431 32.9384L35.506 32.9384V34.9384L69.4431 34.9384V32.9384ZM36.506 33.9384L36.506 0.00126752L34.506 0.00126752L34.506 33.9384H36.506Z" fill="white" mask="url(#path-1-inside-1_9_187)"/>
<circle cx="35.2084" cy="34.2361" r="20.5417" fill="white"/>
<path d="M46.0833 34.2361L28.5624 44.3518L28.5624 24.1204L46.0833 34.2361Z" fill="black"/>
</svg>
