<svg width="231" height="53" viewBox="0 0 231 53" fill="none" xmlns="http://www.w3.org/2000/svg">
<path fill-rule="evenodd" clip-rule="evenodd" d="M26.7304 0.000980672C26.6537 0.00032733 26.5769 0 26.5 0C11.8645 0 0 11.8645 0 26.5C0 41.1356 11.8645 53 26.5 53C41.1356 53 53 41.1356 53 26.5C53 26.4231 52.9997 26.3463 52.999 26.2696H26.7304V0.000980672Z" fill="#F5F5F5" fill-opacity="0.3"/>
<circle cx="26.5001" cy="26.5001" r="15.9" fill="#EAE823"/>
<path d="M17.9986 26.1047C17.6081 26.4952 17.6081 27.1283 17.9986 27.5189L24.3626 33.8828C24.7531 34.2734 25.3863 34.2734 25.7768 33.8828C26.1673 33.4923 26.1673 32.8591 25.7768 32.4686L20.1199 26.8118L25.7768 21.1549C26.1673 20.7644 26.1673 20.1312 25.7768 19.7407C25.3863 19.3502 24.7531 19.3502 24.3626 19.7407L17.9986 26.1047ZM34.9175 25.8118L18.7057 25.8118L18.7057 27.8118L34.9175 27.8118L34.9175 25.8118Z" fill="black"/>
<path d="M62.96 35V17.36H65.6C66.496 17.36 67.268 17.52 67.916 17.84C68.572 18.152 69.076 18.644 69.428 19.316C69.788 19.988 69.968 20.856 69.968 21.92C69.968 22.768 69.856 23.508 69.632 24.14C69.416 24.772 68.992 25.288 68.36 25.688C69 26.04 69.46 26.6 69.74 27.368C70.02 28.128 70.16 29.008 70.16 30.008C70.16 30.992 70 31.86 69.68 32.612C69.368 33.364 68.904 33.952 68.288 34.376C67.68 34.792 66.928 35 66.032 35H62.96ZM65.552 32.432C66.336 32.432 66.852 32.2 67.1 31.736C67.348 31.264 67.472 30.592 67.472 29.72C67.472 28.832 67.348 28.16 67.1 27.704C66.852 27.24 66.336 27.008 65.552 27.008V32.432ZM65.552 24.632C66.28 24.632 66.78 24.432 67.052 24.032C67.332 23.632 67.472 23.04 67.472 22.256C67.472 21.464 67.328 20.88 67.04 20.504C66.76 20.12 66.264 19.928 65.552 19.928V24.632ZM71.8822 35L74.5462 17.36H77.7142L80.3782 35H77.8582L77.3782 31.4H74.8822L74.4022 35H71.8822ZM75.2422 28.664H77.0182L76.2742 22.736L76.2022 21.8H76.0582L75.9862 22.736L75.2422 28.664ZM85.8063 35.192C85.0703 35.192 84.4423 35.028 83.9223 34.7C83.4103 34.364 83.0183 33.908 82.7463 33.332C82.4823 32.756 82.3503 32.104 82.3503 31.376V20.984C82.3503 20.264 82.4863 19.616 82.7583 19.04C83.0383 18.464 83.4383 18.008 83.9583 17.672C84.4783 17.336 85.0943 17.168 85.8063 17.168C86.3423 17.168 86.8223 17.268 87.2463 17.468C87.6703 17.668 88.0303 17.944 88.3263 18.296C88.6303 18.64 88.8623 19.044 89.0223 19.508C89.1823 19.964 89.2623 20.456 89.2623 20.984V23.408H86.8383V20.984C86.8383 20.616 86.7623 20.308 86.6103 20.06C86.4583 19.812 86.2063 19.688 85.8543 19.688C85.5343 19.688 85.3023 19.816 85.1583 20.072C85.0143 20.328 84.9423 20.632 84.9423 20.984V31.376C84.9423 31.728 85.0183 32.032 85.1703 32.288C85.3303 32.544 85.5583 32.672 85.8543 32.672C86.2143 32.672 86.4663 32.548 86.6103 32.3C86.7623 32.052 86.8383 31.744 86.8383 31.376V28.952H89.2623V31.376C89.2623 32.096 89.1223 32.744 88.8423 33.32C88.5623 33.896 88.1623 34.352 87.6423 34.688C87.1303 35.024 86.5183 35.192 85.8063 35.192ZM91.7919 35V17.36H94.3839V23.24V23.528H94.4799L94.5999 23.24L96.6159 17.36H99.2799L96.9039 23.168L99.5919 35H96.9279L95.1999 26.96H95.1279L94.3839 28.76V35H91.7919ZM107.663 35V20.024H105.215V17.36H112.703V20.024H110.255V35H107.663ZM117.96 35.192C117.24 35.192 116.62 35.024 116.1 34.688C115.588 34.352 115.192 33.896 114.912 33.32C114.64 32.744 114.504 32.096 114.504 31.376V20.984C114.504 20.256 114.64 19.608 114.912 19.04C115.192 18.464 115.588 18.008 116.1 17.672C116.62 17.336 117.24 17.168 117.96 17.168C118.68 17.168 119.296 17.336 119.808 17.672C120.328 18.008 120.724 18.464 120.996 19.04C121.276 19.616 121.416 20.264 121.416 20.984V31.376C121.416 32.096 121.276 32.744 120.996 33.32C120.724 33.896 120.328 34.352 119.808 34.688C119.296 35.024 118.68 35.192 117.96 35.192ZM117.96 32.672C118.28 32.672 118.504 32.54 118.632 32.276C118.76 32.004 118.824 31.704 118.824 31.376V20.984C118.824 20.656 118.756 20.36 118.62 20.096C118.484 19.824 118.264 19.688 117.96 19.688C117.664 19.688 117.444 19.824 117.3 20.096C117.164 20.36 117.096 20.656 117.096 20.984V31.376C117.096 31.704 117.164 32.004 117.3 32.276C117.436 32.54 117.656 32.672 117.96 32.672ZM128.368 35V17.36H131.656L133.072 26.504L133.192 27.44H133.24L133.36 26.504L134.776 17.36H138.064V35H135.664V23.168H135.52L135.424 23.912L133.888 35H132.544L131.008 23.912L130.912 23.168H130.768V35H128.368ZM140.173 35L142.837 17.36H146.005L148.669 35H146.149L145.669 31.4H143.173L142.693 35H140.173ZM143.533 28.664H145.309L144.565 22.736L144.493 21.8H144.349L144.277 22.736L143.533 28.664ZM150.762 35V17.36H153.354C154.906 17.36 156.05 17.792 156.786 18.656C157.522 19.512 157.89 20.776 157.89 22.448C157.89 23.44 157.714 24.3 157.362 25.028C157.018 25.748 156.598 26.276 156.102 26.612L157.866 35H155.274L153.81 27.56H153.354V35H150.762ZM153.354 25.16C153.834 25.16 154.214 25.056 154.494 24.848C154.774 24.632 154.974 24.328 155.094 23.936C155.214 23.544 155.274 23.08 155.274 22.544C155.274 21.704 155.134 21.06 154.854 20.612C154.582 20.156 154.082 19.928 153.354 19.928V25.16ZM160.06 35V17.36L162.652 17.36V23.24V23.528H162.748L162.868 23.24L164.884 17.36H167.548L165.172 23.168L167.86 35H165.196L163.468 26.96H163.396L162.652 28.76V35H160.06ZM169.78 35V17.36H175.708V20.024H172.372V24.776H174.772V27.368H172.372V32.336H175.708V35H169.78ZM180.079 35V20.024H177.631V17.36L185.119 17.36V20.024H182.671V35H180.079ZM187.04 35V17.36H189.632C190.616 17.36 191.436 17.576 192.092 18.008C192.756 18.44 193.252 19.052 193.58 19.844C193.908 20.636 194.072 21.568 194.072 22.64C194.072 23.712 193.9 24.636 193.556 25.412C193.212 26.188 192.708 26.796 192.044 27.236C191.388 27.668 190.584 27.904 189.632 27.944V35H187.04ZM189.632 25.304C190.088 25.304 190.448 25.216 190.712 25.04C190.976 24.856 191.164 24.568 191.276 24.176C191.396 23.784 191.456 23.28 191.456 22.664C191.456 22.04 191.396 21.532 191.276 21.14C191.164 20.748 190.972 20.46 190.7 20.276C190.436 20.092 190.08 20 189.632 20V25.304ZM195.658 35L198.322 17.36H201.49L204.154 35H201.634L201.154 31.4H198.658L198.178 35H195.658ZM199.018 28.664H200.794L200.05 22.736L199.978 21.8H199.834L199.762 22.736L199.018 28.664ZM206.246 35V17.36L208.838 17.36V32.6H212.27V35H206.246ZM217.38 35.192C216.644 35.192 216.016 35.028 215.496 34.7C214.984 34.364 214.592 33.908 214.32 33.332C214.056 32.756 213.924 32.104 213.924 31.376V20.984C213.924 20.264 214.06 19.616 214.332 19.04C214.612 18.464 215.012 18.008 215.532 17.672C216.052 17.336 216.668 17.168 217.38 17.168C217.916 17.168 218.396 17.268 218.82 17.468C219.244 17.668 219.604 17.944 219.9 18.296C220.204 18.64 220.436 19.044 220.596 19.508C220.756 19.964 220.836 20.456 220.836 20.984V23.408H218.412V20.984C218.412 20.616 218.336 20.308 218.184 20.06C218.032 19.812 217.78 19.688 217.428 19.688C217.108 19.688 216.876 19.816 216.732 20.072C216.588 20.328 216.516 20.632 216.516 20.984V31.376C216.516 31.728 216.592 32.032 216.744 32.288C216.904 32.544 217.132 32.672 217.428 32.672C217.788 32.672 218.04 32.548 218.184 32.3C218.336 32.052 218.412 31.744 218.412 31.376V28.952H220.836V31.376C220.836 32.096 220.696 32.744 220.416 33.32C220.136 33.896 219.736 34.352 219.216 34.688C218.704 35.024 218.092 35.192 217.38 35.192ZM223.365 35V17.36L229.293 17.36V20.024H225.957V24.776H228.357V27.368H225.957V32.336H229.293V35H223.365Z" fill="black"/>
</svg>
