<svg width="69" height="69" viewBox="0 0 69 69" fill="none" xmlns="http://www.w3.org/2000/svg">
<mask id="path-1-inside-1_454_166" fill="white">
<path fill-rule="evenodd" clip-rule="evenodd" d="M34.5338 0.00126752C34.4347 0.000423075 34.3354 0 34.2361 0C15.328 0 0 15.328 0 34.2361C0 53.1442 15.328 68.4722 34.2361 68.4722C53.1442 68.4722 68.4722 53.1442 68.4722 34.2361C68.4722 34.1368 68.4718 34.0375 68.471 33.9384L34.5338 33.9384L34.5338 0.00126752Z"/>
</mask>
<path d="M34.5338 0.00126752L35.5338 0.00126752V-0.990251L34.5423 -0.998696L34.5338 0.00126752ZM68.471 33.9384L69.4709 33.9299L69.4624 32.9384H68.471V33.9384ZM34.5338 33.9384H33.5338V34.9384H34.5338V33.9384ZM34.2361 1C34.3326 1 34.429 1.00041 34.5253 1.00123L34.5423 -0.998696C34.4404 -0.999565 34.3383 -1 34.2361 -1V1ZM1 34.2361C1 15.8803 15.8803 1 34.2361 1V-1C14.7757 -1 -1 14.7757 -1 34.2361H1ZM34.2361 67.4722C15.8803 67.4722 1 52.5919 1 34.2361H-1C-1 53.6965 14.7757 69.4722 34.2361 69.4722V67.4722ZM67.4722 34.2361C67.4722 52.5919 52.5919 67.4722 34.2361 67.4722V69.4722C53.6965 69.4722 69.4722 53.6965 69.4722 34.2361H67.4722ZM67.471 33.9469C67.4718 34.0432 67.4722 34.1396 67.4722 34.2361H69.4722C69.4722 34.134 69.4718 34.0319 69.4709 33.9299L67.471 33.9469ZM68.471 32.9384L34.5338 32.9384V34.9384L68.471 34.9384V32.9384ZM35.5338 33.9384L35.5338 0.00126752L33.5338 0.00126752L33.5338 33.9384H35.5338Z" fill="white" mask="url(#path-1-inside-1_454_166)"/>
<circle cx="34.2362" cy="34.2361" r="20.5417" fill="white"/>
<path d="M32.4096 44.2313L27.9999 44.2313L27.9999 24L32.4097 24L32.4096 44.2313Z" fill="black"/>
<path d="M40.4095 44.2313L35.9999 44.2313L35.9999 24L40.4097 24L40.4095 44.2313Z" fill="black"/>
</svg>
