<svg width="69" height="69" viewBox="0 0 69 69" fill="none" xmlns="http://www.w3.org/2000/svg">
<mask id="path-1-inside-1_454_159" fill="white">
<path fill-rule="evenodd" clip-rule="evenodd" d="M34.5338 0.00138959C34.4347 0.000545146 34.3354 0.00012207 34.2361 0.00012207C15.328 0.00012207 0 15.3282 0 34.2362C0 53.1443 15.328 68.4723 34.2361 68.4723C53.1442 68.4723 68.4722 53.1443 68.4722 34.2362C68.4722 34.1369 68.4718 34.0377 68.471 33.9385L34.5338 33.9385L34.5338 0.00138959Z"/>
</mask>
<path d="M34.5338 0.00138959L35.5338 0.00138959V-0.990129L34.5423 -0.998574L34.5338 0.00138959ZM68.471 33.9385L69.4709 33.93L69.4624 32.9385H68.471V33.9385ZM34.5338 33.9385H33.5338V34.9385H34.5338V33.9385ZM34.2361 1.00012C34.3326 1.00012 34.429 1.00053 34.5253 1.00135L34.5423 -0.998574C34.4404 -0.999443 34.3383 -0.999878 34.2361 -0.999878V1.00012ZM1 34.2362C1 15.8804 15.8803 1.00012 34.2361 1.00012V-0.999878C14.7757 -0.999878 -1 14.7759 -1 34.2362H1ZM34.2361 67.4723C15.8803 67.4723 1 52.592 1 34.2362H-1C-1 53.6966 14.7757 69.4723 34.2361 69.4723V67.4723ZM67.4722 34.2362C67.4722 52.592 52.5919 67.4723 34.2361 67.4723V69.4723C53.6965 69.4723 69.4722 53.6966 69.4722 34.2362H67.4722ZM67.471 33.9471C67.4718 34.0433 67.4722 34.1397 67.4722 34.2362H69.4722C69.4722 34.1341 69.4718 34.032 69.4709 33.93L67.471 33.9471ZM68.471 32.9385L34.5338 32.9385V34.9385L68.471 34.9385V32.9385ZM35.5338 33.9385L35.5338 0.00138959L33.5338 0.00138959L33.5338 33.9385H35.5338Z" fill="#EAE823" mask="url(#path-1-inside-1_454_159)"/>
<circle cx="34.2362" cy="34.2362" r="20.5417" fill="#EAE823"/>
<path d="M32.4096 44.2313L27.9999 44.2313L27.9999 24L32.4097 24L32.4096 44.2313Z" fill="black"/>
<path d="M40.4095 44.2313L35.9999 44.2313L35.9999 24L40.4097 24L40.4095 44.2313Z" fill="black"/>
</svg>
