<svg width="23" height="9" viewBox="0 0 23 9" fill="none" xmlns="http://www.w3.org/2000/svg">
<path d="M8.68668 0L11.5491 0C12.9312 0 15.3995 0.903375 15.3995 4.5C15.3995 8.09662 12.9323 9 11.5491 9H8.68773L8.68668 0ZM10.2653 7.1775H11.4509C12.4378 7.1775 13.6223 6.52725 13.6223 4.5C13.6223 2.47275 12.4378 1.8225 11.4509 1.8225L10.2664 1.8225L10.2653 7.1775ZM16.4868 0L17.0785 0L22.4083 7.90425V0L23 0V9H22.4072L17.0775 1.269V9L16.4847 9L16.4868 0ZM0 0L1.97382 0L1.97382 2.25L0 2.25L0 0ZM2.96177 0L4.93455 0V2.25L2.96177 2.25L2.96177 0ZM5.9225 0L7.89736 0V2.25L5.9225 2.25V0ZM5.9225 3.375L7.89736 3.375V5.625H5.9225V3.375ZM5.9225 6.75H7.89736L7.89736 9H5.9225L5.9225 6.75ZM2.96177 3.375L4.93455 3.375V5.625H2.96177L2.96177 3.375Z" fill="black"/>
</svg>
